<svg id="图层_1" data-name="图层 1" xmlns="http://www.w3.org/2000/svg" viewBox="0 0 248.46292 53.8037"><defs><style>.cls-1{fill:#1d1d1b;}</style></defs><path class="cls-1" d="M75.3565,33.1753H61.4932a5.31618,5.31618,0,0,0-3.2832.8223,3.10981,3.10981,0,0,0-1.043,2.6055,2.57534,2.57534,0,0,0,.8907,2.1455,4.16822,4.16822,0,0,0,2.6523.7148h7.4317q4.59075,0,6.5371,1.7148,1.94235,1.71105,1.9433,5.711,0,4.05465-2.2422,5.9531-2.24415,1.90425-7.0566,1.9063H52.3858V50.0884H66.4346a6.14923,6.14923,0,0,0,3.3789-.6914,2.60032,2.60032,0,0,0,.9844-2.2852,2.799,2.799,0,0,0-.9004-2.3437,5.15628,5.15628,0,0,0-3.082-.6992H60.1846q-4.59375,0-6.7187-1.8125-2.124-1.8048-2.127-5.7158,0-4.1748,2.2344-6.0977,2.23245-1.9278,7.0996-1.9297H75.3565Z" transform="translate(-6.24907 -7.937)"/><path class="cls-1" d="M88.0909,50.522h4.125V35.5054h5.1679V54.229q0,3.8262-1.8086,5.668-1.81335,1.84574-5.539,1.8437H79.96V57.8384h9.1953a3.30836,3.30836,0,0,0,2.2715-.71091,2.63563,2.63563,0,0,0,.7891-2.05859v-.3203H87.6788q-4.38,0-6.2383-1.6993-1.8663-1.69921-1.8653-5.67181V35.5054h5.1114V46.9868a4.32922,4.32922,0,0,0,.6582,2.8555,3.956,3.956,0,0,0,2.7461.6797" transform="translate(-6.24907 -7.937)"/><path class="cls-1" d="M101.4366,35.5054h9.6953q4.4004,0,6.2812,1.6338,1.88385,1.6347,1.8828,5.414V54.7486h-5.164V43.1782q0-2.1621-.6797-2.80071a4.08143,4.08143,0,0,0-2.7148-.64069h-4.1348V54.7486h-5.166Z" transform="translate(-6.24907 -7.937)"/><path class="cls-1" d="M133.7901,50.62749h5.4844V54.7486h-7.0059a14.9649,14.9649,0,0,1-4.375-.543,7.54183,7.54183,0,0,1-2.9805-1.7578,9.21306,9.21306,0,0,1-2.1328-3.2188,10.60436,10.60436,0,0,1-.7676-4.0234,11.284,11.284,0,0,1,.7618-4.16411,8.8056,8.8056,0,0,1,2.1386-3.23429,7.68759,7.68759,0,0,1,3.0157-1.7588,14.73005,14.73005,0,0,1,4.3398-.543h7.0059v4.1728h-5.4844q-3.64155,0-5.0156,1.23829-1.37415,1.24231-1.377,4.30081a6.71023,6.71023,0,0,0,.5606,2.918,4.4467,4.4467,0,0,0,1.7382,1.86719,4.02157,4.02157,0,0,0,1.3496.48431,17.78355,17.78355,0,0,0,2.7442.14069" transform="translate(-6.24907 -7.937)"/><path class="cls-1" d="M143.8877,39.354h-3.6816V35.5054h3.6816V33.50149c0-1.957.3653-3.28129,1.1055-3.96289q1.0986-1.0224,4.2305-1.0215h4.8906v3.6817h-2.4492a3.26581,3.26581,0,0,0-1.8809.4101,1.53145,1.53145,0,0,0-.5605,1.3457v1.5508h4.8906V39.354h-4.8906V54.7486h-5.336Z" transform="translate(-6.24907 -7.937)"/><path class="cls-1" d="M173.7393,54.7486h-9.7246q-4.26855,0-6.1758-1.6719-1.90425-1.67581-1.9023-5.3633V35.5054h5.1113V47.3111a3.59121,3.59121,0,0,0,.6777,2.56639,4.07707,4.07707,0,0,0,2.709.64451h4.1406V35.5054h5.1641Z" transform="translate(-6.24907 -7.937)"/><path class="cls-1" d="M177.5206,50.7368h10.8535a3.87594,3.87594,0,0,0,2.1133-.44531,1.84048,1.84048,0,0,0-.0079-2.84369,3.83743,3.83743,0,0,0-2.1054-.4492H183.917q-3.95205,0-5.3339-1.1993-1.39455-1.19522-1.3926-4.2539a5.75728,5.75728,0,0,1,1.6777-4.5713q1.6788-1.4706,5.1953-1.4687h11.1016v4.0127H186.042a6.885,6.885,0,0,0-2.9043.3867,1.46381,1.46381,0,0,0-.6718,1.3828,1.543,1.543,0,0,0,.5898,1.3321,3.23556,3.23556,0,0,0,1.8613.42179h4.6739a7.223,7.223,0,0,1,4.8789,1.46491,5.31319,5.31319,0,0,1,1.6816,4.2383,6.27108,6.27108,0,0,1-1.4902,4.3359,4.91335,4.91335,0,0,1-3.8379,1.668H177.5206Z" transform="translate(-6.24907 -7.937)"/><path class="cls-1" d="M204.6436,33.3394h-5.3848V28.5699h5.3848Zm0,21.4092h-5.3848V35.5054h5.3848Z" transform="translate(-6.24907 -7.937)"/><path class="cls-1" d="M228.01269,45.1431a9.59656,9.59656,0,0,1-2.7949,7.2305,11.908,11.908,0,0,1-15.09959-.0079,9.53581,9.53581,0,0,1-2.8242-7.2226,9.58934,9.58934,0,0,1,2.8242-7.2461,11.82628,11.82628,0,0,1,15.086,0,9.63027,9.63027,0,0,1,2.8085,7.2461m-15.33,0a6.38494,6.38494,0,0,0,1.3086,4.2773,4.52736,4.52736,0,0,0,3.6543,1.5352,4.57573,4.57573,0,0,0,3.6582-1.5352,6.328,6.328,0,0,0,1.32611-4.2773,6.30364,6.30364,0,0,0-1.32031-4.26561,4.60461,4.60461,0,0,0-3.664-1.52349,4.55523,4.55523,0,0,0-3.6465,1.5352,6.3078,6.3078,0,0,0-1.3164,4.2539" transform="translate(-6.24907 -7.937)"/><path class="cls-1" d="M230.56349,35.5054h9.6973q4.3974,0,6.2793,1.6338,1.88371,1.6347,1.88481,5.414V54.7486h-5.168V43.1782q0-2.1621-.67581-2.80071a4.08794,4.08794,0,0,0-2.7168-.64069h-4.1348V54.7486h-5.166Z" transform="translate(-6.24907 -7.937)"/><rect class="cls-1" y="6.3243" width="12.13281" height="11.9785"/><polygon class="cls-1" points="41.012 17.197 49.016 7.902 39.59 0 31.582 9.301 41.012 17.197"/><rect class="cls-1" x="14.43164" y="6.3243" width="12.13279" height="11.9785"/><rect class="cls-1" y="20.5606" width="12.13281" height="11.9775"/><rect class="cls-1" x="14.43164" y="20.5606" width="12.13279" height="11.9775"/><rect class="cls-1" x="28.90823" y="20.5606" width="12.1308" height="11.9775"/><rect class="cls-1" x="0.01758" y="34.8116" width="12.13672" height="11.9765"/><rect class="cls-1" x="14.45117" y="34.8116" width="12.13476" height="11.9765"/><rect class="cls-1" x="28.92383" y="34.8116" width="12.1309" height="11.9765"/><path class="cls-1" d="M254.712,34.5581a3.15974,3.15974,0,1,1-3.1075-3.1113,3.1352,3.1352,0,0,1,3.1075,3.1113m-5.12109-1.7363a2.56475,2.56475,0,0,0-.68361,1.7168,2.647,2.647,0,1,0,2.6875-2.5859,2.58948,2.58948,0,0,0-2.00389.8691m3.26949,3.582h-.6406l-.9473-1.3652v1.3652h-.5234V32.7847h.625c.7929,0,1.2109.3633,1.2109,1.0352a.93456.93456,0,0,1-.8437.9843Zm-1.4199-2.07031c.4023,0,.60941-.18159.60941-.52149,0-.3652-.19931-.5273-.65631-.5273h-.1211v1.04879Z" transform="translate(-6.24907 -7.937)"/></svg>